<mxfile host="app.diagrams.net" modified="2021-01-28T13:06:39.437Z" agent="5.0 (Windows)" etag="nkUoRqft6XkiUrJoHgPH" version="14.2.7" type="github">
  <diagram id="PVdL_zoP0Urx2-9kqrgy" name="Page-1">
    <mxGraphModel dx="1038" dy="547" grid="1" gridSize="10" guides="1" tooltips="1" connect="1" arrows="1" fold="1" page="1" pageScale="1" pageWidth="1169" pageHeight="827" math="0" shadow="0">
      <root>
        <mxCell id="0" />
        <mxCell id="1" parent="0" />
        <mxCell id="dvURbFbIRr_XrWgvkVuH-1" value="Research Proposal Development" style="swimlane;" vertex="1" parent="1">
          <mxGeometry x="10" y="10" width="1150" height="810" as="geometry" />
        </mxCell>
      </root>
    </mxGraphModel>
  </diagram>
</mxfile>
